<?xml version="1.0" standalone="no"?>
<!DOCTYPE svg PUBLIC "-//W3C//DTD SVG 20010904//EN"
 "http://www.w3.org/TR/2001/REC-SVG-20010904/DTD/svg10.dtd">
<svg version="1.0" xmlns="http://www.w3.org/2000/svg"
 width="310.000000pt" height="200.000000pt" viewBox="0 0 310.000000 200.000000"
 preserveAspectRatio="xMidYMid meet">

<g transform="translate(0.000000,200.000000) scale(0.100000,-0.100000)"
fill="#000000" stroke="none">
<path d="M1475 1594 c-90 -21 -119 -31 -180 -62 -88 -44 -207 -160 -253 -249
-42 -80 -72 -198 -72 -283 0 -85 30 -203 72 -283 48 -91 165 -205 258 -251
337 -165 733 5 846 363 24 75 29 225 10 305 -48 205 -210 378 -413 442 -48 15
-230 27 -268 18z m323 -246 c19 -19 14 -28 -15 -30 -18 0 -12 -3 16 -7 25 -3
46 -12 49 -18 3 -10 -21 -14 -95 -15 l-98 -2 114 -5 c76 -4 116 -10 118 -18 3
-9 -20 -13 -84 -16 l-88 -3 100 -2 c93 -2 101 -4 118 -27 l18 -25 -146 0 -145
0 0 -132 0 -133 -90 90 c-85 85 -90 92 -90 132 l0 43 -47 0 c-46 0 -50 2 -130
82 -46 46 -83 86 -83 90 0 14 564 10 578 -4z m-221 -430 l83 -83 0 -140 0
-140 -90 90 -90 90 0 132 c0 73 3 133 7 133 4 0 45 -37 90 -82z"/>
</g>
</svg>
